<mxfile host="app.diagrams.net" agent="Mozilla/5.0 (Windows NT 10.0; Win64; x64) AppleWebKit/537.36 (KHTML, like Gecko) Chrome/131.0.0.0 Safari/537.36 OPR/116.0.0.0" version="26.0.13">
  <diagram name="Página-1" id="v0C_nDmnC5SCvkjFzFBn">
    <mxGraphModel dx="1341" dy="759" grid="1" gridSize="10" guides="1" tooltips="1" connect="1" arrows="1" fold="1" page="1" pageScale="1" pageWidth="1169" pageHeight="1654" math="0" shadow="0">
      <root>
        <mxCell id="0" />
        <mxCell id="1" parent="0" />
        <mxCell id="84JKLHhIpNaMjtRcndb6-6" style="edgeStyle=orthogonalEdgeStyle;rounded=0;orthogonalLoop=1;jettySize=auto;html=1;entryX=0.5;entryY=0;entryDx=0;entryDy=0;" edge="1" parent="1" source="84JKLHhIpNaMjtRcndb6-1" target="84JKLHhIpNaMjtRcndb6-2">
          <mxGeometry relative="1" as="geometry" />
        </mxCell>
        <mxCell id="84JKLHhIpNaMjtRcndb6-1" value="Inicio" style="ellipse;whiteSpace=wrap;html=1;" vertex="1" parent="1">
          <mxGeometry x="200" y="40" width="140" height="80" as="geometry" />
        </mxCell>
        <mxCell id="84JKLHhIpNaMjtRcndb6-7" style="edgeStyle=orthogonalEdgeStyle;rounded=0;orthogonalLoop=1;jettySize=auto;html=1;" edge="1" parent="1" source="84JKLHhIpNaMjtRcndb6-2" target="84JKLHhIpNaMjtRcndb6-3">
          <mxGeometry relative="1" as="geometry" />
        </mxCell>
        <mxCell id="84JKLHhIpNaMjtRcndb6-2" value="&quot;Ingresar 1° número&quot;" style="shape=document;whiteSpace=wrap;html=1;boundedLbl=1;" vertex="1" parent="1">
          <mxGeometry x="210" y="160" width="120" height="60" as="geometry" />
        </mxCell>
        <mxCell id="84JKLHhIpNaMjtRcndb6-8" style="edgeStyle=orthogonalEdgeStyle;rounded=0;orthogonalLoop=1;jettySize=auto;html=1;entryX=0.5;entryY=0;entryDx=0;entryDy=0;" edge="1" parent="1" source="84JKLHhIpNaMjtRcndb6-3" target="84JKLHhIpNaMjtRcndb6-4">
          <mxGeometry relative="1" as="geometry" />
        </mxCell>
        <mxCell id="84JKLHhIpNaMjtRcndb6-3" value="N. 1°" style="shape=parallelogram;perimeter=parallelogramPerimeter;whiteSpace=wrap;html=1;fixedSize=1;" vertex="1" parent="1">
          <mxGeometry x="210" y="250" width="120" height="40" as="geometry" />
        </mxCell>
        <mxCell id="84JKLHhIpNaMjtRcndb6-9" style="edgeStyle=orthogonalEdgeStyle;rounded=0;orthogonalLoop=1;jettySize=auto;html=1;entryX=0.5;entryY=0;entryDx=0;entryDy=0;" edge="1" parent="1" source="84JKLHhIpNaMjtRcndb6-4" target="84JKLHhIpNaMjtRcndb6-5">
          <mxGeometry relative="1" as="geometry" />
        </mxCell>
        <mxCell id="84JKLHhIpNaMjtRcndb6-4" value="&quot;Ingresar 2° número&quot;" style="shape=document;whiteSpace=wrap;html=1;boundedLbl=1;" vertex="1" parent="1">
          <mxGeometry x="210" y="330" width="120" height="60" as="geometry" />
        </mxCell>
        <mxCell id="84JKLHhIpNaMjtRcndb6-11" style="edgeStyle=orthogonalEdgeStyle;rounded=0;orthogonalLoop=1;jettySize=auto;html=1;" edge="1" parent="1" source="84JKLHhIpNaMjtRcndb6-5" target="84JKLHhIpNaMjtRcndb6-10">
          <mxGeometry relative="1" as="geometry" />
        </mxCell>
        <mxCell id="84JKLHhIpNaMjtRcndb6-5" value="N. 2°" style="shape=parallelogram;perimeter=parallelogramPerimeter;whiteSpace=wrap;html=1;fixedSize=1;" vertex="1" parent="1">
          <mxGeometry x="210" y="430" width="120" height="40" as="geometry" />
        </mxCell>
        <mxCell id="84JKLHhIpNaMjtRcndb6-13" style="edgeStyle=orthogonalEdgeStyle;rounded=0;orthogonalLoop=1;jettySize=auto;html=1;entryX=0.5;entryY=0;entryDx=0;entryDy=0;" edge="1" parent="1" source="84JKLHhIpNaMjtRcndb6-10" target="84JKLHhIpNaMjtRcndb6-12">
          <mxGeometry relative="1" as="geometry">
            <Array as="points">
              <mxPoint x="150" y="550" />
            </Array>
          </mxGeometry>
        </mxCell>
        <mxCell id="84JKLHhIpNaMjtRcndb6-16" style="edgeStyle=orthogonalEdgeStyle;rounded=0;orthogonalLoop=1;jettySize=auto;html=1;entryX=0.5;entryY=0;entryDx=0;entryDy=0;" edge="1" parent="1" source="84JKLHhIpNaMjtRcndb6-10" target="84JKLHhIpNaMjtRcndb6-15">
          <mxGeometry relative="1" as="geometry" />
        </mxCell>
        <mxCell id="84JKLHhIpNaMjtRcndb6-10" value="N. 1° &amp;gt; N. 2°" style="rhombus;whiteSpace=wrap;html=1;" vertex="1" parent="1">
          <mxGeometry x="210" y="510" width="120" height="80" as="geometry" />
        </mxCell>
        <mxCell id="84JKLHhIpNaMjtRcndb6-42" style="edgeStyle=orthogonalEdgeStyle;rounded=0;orthogonalLoop=1;jettySize=auto;html=1;entryX=0;entryY=0.5;entryDx=0;entryDy=0;" edge="1" parent="1" source="84JKLHhIpNaMjtRcndb6-12" target="84JKLHhIpNaMjtRcndb6-25">
          <mxGeometry relative="1" as="geometry" />
        </mxCell>
        <mxCell id="84JKLHhIpNaMjtRcndb6-12" value="&quot;El 1° número es mayor&quot;" style="shape=document;whiteSpace=wrap;html=1;boundedLbl=1;" vertex="1" parent="1">
          <mxGeometry x="90" y="600" width="120" height="60" as="geometry" />
        </mxCell>
        <mxCell id="84JKLHhIpNaMjtRcndb6-14" value="Si" style="text;html=1;align=center;verticalAlign=middle;resizable=0;points=[];autosize=1;strokeColor=none;fillColor=none;" vertex="1" parent="1">
          <mxGeometry x="180" y="530" width="30" height="30" as="geometry" />
        </mxCell>
        <mxCell id="84JKLHhIpNaMjtRcndb6-18" style="edgeStyle=orthogonalEdgeStyle;rounded=0;orthogonalLoop=1;jettySize=auto;html=1;entryX=0.5;entryY=0;entryDx=0;entryDy=0;" edge="1" parent="1" source="84JKLHhIpNaMjtRcndb6-15" target="84JKLHhIpNaMjtRcndb6-17">
          <mxGeometry relative="1" as="geometry">
            <Array as="points">
              <mxPoint x="390" y="710" />
            </Array>
          </mxGeometry>
        </mxCell>
        <mxCell id="84JKLHhIpNaMjtRcndb6-23" style="edgeStyle=orthogonalEdgeStyle;rounded=0;orthogonalLoop=1;jettySize=auto;html=1;entryX=0.5;entryY=0;entryDx=0;entryDy=0;" edge="1" parent="1" source="84JKLHhIpNaMjtRcndb6-15" target="84JKLHhIpNaMjtRcndb6-21">
          <mxGeometry relative="1" as="geometry" />
        </mxCell>
        <mxCell id="84JKLHhIpNaMjtRcndb6-15" value="N. 1° &amp;lt; N. 2°" style="rhombus;whiteSpace=wrap;html=1;" vertex="1" parent="1">
          <mxGeometry x="210" y="670" width="120" height="80" as="geometry" />
        </mxCell>
        <mxCell id="84JKLHhIpNaMjtRcndb6-41" style="edgeStyle=orthogonalEdgeStyle;rounded=0;orthogonalLoop=1;jettySize=auto;html=1;entryX=1;entryY=0.5;entryDx=0;entryDy=0;" edge="1" parent="1" source="84JKLHhIpNaMjtRcndb6-17" target="84JKLHhIpNaMjtRcndb6-25">
          <mxGeometry relative="1" as="geometry" />
        </mxCell>
        <mxCell id="84JKLHhIpNaMjtRcndb6-17" value="&quot;El 2° número es mayor&quot;" style="shape=document;whiteSpace=wrap;html=1;boundedLbl=1;" vertex="1" parent="1">
          <mxGeometry x="330" y="760" width="120" height="60" as="geometry" />
        </mxCell>
        <mxCell id="84JKLHhIpNaMjtRcndb6-19" value="Si" style="text;html=1;align=center;verticalAlign=middle;resizable=0;points=[];autosize=1;strokeColor=none;fillColor=none;" vertex="1" parent="1">
          <mxGeometry x="325" y="688" width="30" height="30" as="geometry" />
        </mxCell>
        <mxCell id="84JKLHhIpNaMjtRcndb6-20" value="No" style="text;html=1;align=center;verticalAlign=middle;resizable=0;points=[];autosize=1;strokeColor=none;fillColor=none;" vertex="1" parent="1">
          <mxGeometry x="260" y="588" width="40" height="30" as="geometry" />
        </mxCell>
        <mxCell id="84JKLHhIpNaMjtRcndb6-26" style="edgeStyle=orthogonalEdgeStyle;rounded=0;orthogonalLoop=1;jettySize=auto;html=1;" edge="1" parent="1" source="84JKLHhIpNaMjtRcndb6-21" target="84JKLHhIpNaMjtRcndb6-25">
          <mxGeometry relative="1" as="geometry" />
        </mxCell>
        <mxCell id="84JKLHhIpNaMjtRcndb6-21" value="&quot;Los números son iguales&quot;" style="shape=document;whiteSpace=wrap;html=1;boundedLbl=1;" vertex="1" parent="1">
          <mxGeometry x="210" y="840" width="120" height="60" as="geometry" />
        </mxCell>
        <mxCell id="84JKLHhIpNaMjtRcndb6-25" value="Fin" style="ellipse;whiteSpace=wrap;html=1;" vertex="1" parent="1">
          <mxGeometry x="210" y="930" width="120" height="60" as="geometry" />
        </mxCell>
        <mxCell id="84JKLHhIpNaMjtRcndb6-29" style="edgeStyle=orthogonalEdgeStyle;rounded=0;orthogonalLoop=1;jettySize=auto;html=1;entryX=0.5;entryY=0;entryDx=0;entryDy=0;" edge="1" parent="1" source="84JKLHhIpNaMjtRcndb6-27" target="84JKLHhIpNaMjtRcndb6-28">
          <mxGeometry relative="1" as="geometry" />
        </mxCell>
        <mxCell id="84JKLHhIpNaMjtRcndb6-27" value="Inicio" style="ellipse;whiteSpace=wrap;html=1;" vertex="1" parent="1">
          <mxGeometry x="770" y="40" width="140" height="80" as="geometry" />
        </mxCell>
        <mxCell id="84JKLHhIpNaMjtRcndb6-31" style="edgeStyle=orthogonalEdgeStyle;rounded=0;orthogonalLoop=1;jettySize=auto;html=1;" edge="1" parent="1" source="84JKLHhIpNaMjtRcndb6-28" target="84JKLHhIpNaMjtRcndb6-30">
          <mxGeometry relative="1" as="geometry" />
        </mxCell>
        <mxCell id="84JKLHhIpNaMjtRcndb6-28" value="&quot;Ingresar año&quot;" style="shape=document;whiteSpace=wrap;html=1;boundedLbl=1;" vertex="1" parent="1">
          <mxGeometry x="780" y="170" width="120" height="60" as="geometry" />
        </mxCell>
        <mxCell id="84JKLHhIpNaMjtRcndb6-35" style="edgeStyle=orthogonalEdgeStyle;rounded=0;orthogonalLoop=1;jettySize=auto;html=1;entryX=0.5;entryY=0;entryDx=0;entryDy=0;" edge="1" parent="1" source="84JKLHhIpNaMjtRcndb6-30" target="84JKLHhIpNaMjtRcndb6-32">
          <mxGeometry relative="1" as="geometry">
            <Array as="points">
              <mxPoint x="720" y="300" />
            </Array>
          </mxGeometry>
        </mxCell>
        <mxCell id="84JKLHhIpNaMjtRcndb6-39" style="edgeStyle=orthogonalEdgeStyle;rounded=0;orthogonalLoop=1;jettySize=auto;html=1;entryX=0.5;entryY=0;entryDx=0;entryDy=0;" edge="1" parent="1" source="84JKLHhIpNaMjtRcndb6-30" target="84JKLHhIpNaMjtRcndb6-33">
          <mxGeometry relative="1" as="geometry" />
        </mxCell>
        <mxCell id="84JKLHhIpNaMjtRcndb6-30" value="Año / 4 == 0" style="rhombus;whiteSpace=wrap;html=1;" vertex="1" parent="1">
          <mxGeometry x="780" y="260" width="120" height="80" as="geometry" />
        </mxCell>
        <mxCell id="84JKLHhIpNaMjtRcndb6-54" style="edgeStyle=orthogonalEdgeStyle;rounded=0;orthogonalLoop=1;jettySize=auto;html=1;entryX=0;entryY=0.5;entryDx=0;entryDy=0;" edge="1" parent="1" source="84JKLHhIpNaMjtRcndb6-32" target="84JKLHhIpNaMjtRcndb6-50">
          <mxGeometry relative="1" as="geometry">
            <Array as="points">
              <mxPoint x="640" y="390" />
              <mxPoint x="640" y="880" />
            </Array>
          </mxGeometry>
        </mxCell>
        <mxCell id="84JKLHhIpNaMjtRcndb6-32" value="&quot;No es bisiesto&quot;" style="shape=document;whiteSpace=wrap;html=1;boundedLbl=1;" vertex="1" parent="1">
          <mxGeometry x="660" y="360" width="120" height="60" as="geometry" />
        </mxCell>
        <mxCell id="84JKLHhIpNaMjtRcndb6-36" style="edgeStyle=orthogonalEdgeStyle;rounded=0;orthogonalLoop=1;jettySize=auto;html=1;entryX=0.5;entryY=0;entryDx=0;entryDy=0;" edge="1" parent="1" source="84JKLHhIpNaMjtRcndb6-33" target="84JKLHhIpNaMjtRcndb6-34">
          <mxGeometry relative="1" as="geometry">
            <Array as="points">
              <mxPoint x="960" y="460" />
            </Array>
          </mxGeometry>
        </mxCell>
        <mxCell id="84JKLHhIpNaMjtRcndb6-46" style="edgeStyle=orthogonalEdgeStyle;rounded=0;orthogonalLoop=1;jettySize=auto;html=1;entryX=0.5;entryY=0;entryDx=0;entryDy=0;" edge="1" parent="1" source="84JKLHhIpNaMjtRcndb6-33" target="84JKLHhIpNaMjtRcndb6-43">
          <mxGeometry relative="1" as="geometry" />
        </mxCell>
        <mxCell id="84JKLHhIpNaMjtRcndb6-33" value="Año / 100 == 0" style="rhombus;whiteSpace=wrap;html=1;" vertex="1" parent="1">
          <mxGeometry x="780" y="420" width="120" height="80" as="geometry" />
        </mxCell>
        <mxCell id="84JKLHhIpNaMjtRcndb6-53" style="edgeStyle=orthogonalEdgeStyle;rounded=0;orthogonalLoop=1;jettySize=auto;html=1;entryX=1;entryY=0.5;entryDx=0;entryDy=0;" edge="1" parent="1" source="84JKLHhIpNaMjtRcndb6-34" target="84JKLHhIpNaMjtRcndb6-50">
          <mxGeometry relative="1" as="geometry">
            <Array as="points">
              <mxPoint x="1040" y="542" />
              <mxPoint x="1040" y="880" />
            </Array>
          </mxGeometry>
        </mxCell>
        <mxCell id="84JKLHhIpNaMjtRcndb6-34" value="&quot;Es bisiesto&quot;" style="shape=document;whiteSpace=wrap;html=1;boundedLbl=1;" vertex="1" parent="1">
          <mxGeometry x="900" y="510" width="120" height="65" as="geometry" />
        </mxCell>
        <mxCell id="84JKLHhIpNaMjtRcndb6-37" value="No" style="text;html=1;align=center;verticalAlign=middle;resizable=0;points=[];autosize=1;strokeColor=none;fillColor=none;" vertex="1" parent="1">
          <mxGeometry x="750" y="278" width="40" height="30" as="geometry" />
        </mxCell>
        <mxCell id="84JKLHhIpNaMjtRcndb6-38" value="No" style="text;html=1;align=center;verticalAlign=middle;resizable=0;points=[];autosize=1;strokeColor=none;fillColor=none;" vertex="1" parent="1">
          <mxGeometry x="890" y="438" width="40" height="30" as="geometry" />
        </mxCell>
        <mxCell id="84JKLHhIpNaMjtRcndb6-40" value="Si" style="text;html=1;align=center;verticalAlign=middle;resizable=0;points=[];autosize=1;strokeColor=none;fillColor=none;" vertex="1" parent="1">
          <mxGeometry x="835" y="338" width="30" height="30" as="geometry" />
        </mxCell>
        <mxCell id="84JKLHhIpNaMjtRcndb6-48" style="edgeStyle=orthogonalEdgeStyle;rounded=0;orthogonalLoop=1;jettySize=auto;html=1;entryX=0.5;entryY=0;entryDx=0;entryDy=0;" edge="1" parent="1" source="84JKLHhIpNaMjtRcndb6-43" target="84JKLHhIpNaMjtRcndb6-45">
          <mxGeometry relative="1" as="geometry">
            <Array as="points">
              <mxPoint x="955" y="620" />
            </Array>
          </mxGeometry>
        </mxCell>
        <mxCell id="84JKLHhIpNaMjtRcndb6-49" style="edgeStyle=orthogonalEdgeStyle;rounded=0;orthogonalLoop=1;jettySize=auto;html=1;entryX=0.5;entryY=0;entryDx=0;entryDy=0;" edge="1" parent="1" source="84JKLHhIpNaMjtRcndb6-43" target="84JKLHhIpNaMjtRcndb6-44">
          <mxGeometry relative="1" as="geometry">
            <Array as="points">
              <mxPoint x="725" y="620" />
            </Array>
          </mxGeometry>
        </mxCell>
        <mxCell id="84JKLHhIpNaMjtRcndb6-43" value="Año / 400 == 0" style="rhombus;whiteSpace=wrap;html=1;" vertex="1" parent="1">
          <mxGeometry x="785" y="580" width="110" height="80" as="geometry" />
        </mxCell>
        <mxCell id="84JKLHhIpNaMjtRcndb6-52" style="edgeStyle=orthogonalEdgeStyle;rounded=0;orthogonalLoop=1;jettySize=auto;html=1;entryX=0;entryY=0;entryDx=0;entryDy=0;" edge="1" parent="1" source="84JKLHhIpNaMjtRcndb6-44" target="84JKLHhIpNaMjtRcndb6-50">
          <mxGeometry relative="1" as="geometry" />
        </mxCell>
        <mxCell id="84JKLHhIpNaMjtRcndb6-44" value="&quot;Es bisiesto&quot;" style="shape=document;whiteSpace=wrap;html=1;boundedLbl=1;" vertex="1" parent="1">
          <mxGeometry x="665" y="700" width="120" height="60" as="geometry" />
        </mxCell>
        <mxCell id="84JKLHhIpNaMjtRcndb6-51" style="edgeStyle=orthogonalEdgeStyle;rounded=0;orthogonalLoop=1;jettySize=auto;html=1;entryX=1;entryY=0;entryDx=0;entryDy=0;" edge="1" parent="1" source="84JKLHhIpNaMjtRcndb6-45" target="84JKLHhIpNaMjtRcndb6-50">
          <mxGeometry relative="1" as="geometry" />
        </mxCell>
        <mxCell id="84JKLHhIpNaMjtRcndb6-45" value="&quot;No es bisiesto&quot;" style="shape=document;whiteSpace=wrap;html=1;boundedLbl=1;" vertex="1" parent="1">
          <mxGeometry x="895" y="700" width="120" height="60" as="geometry" />
        </mxCell>
        <mxCell id="84JKLHhIpNaMjtRcndb6-47" value="Si" style="text;html=1;align=center;verticalAlign=middle;resizable=0;points=[];autosize=1;strokeColor=none;fillColor=none;" vertex="1" parent="1">
          <mxGeometry x="835" y="498" width="30" height="30" as="geometry" />
        </mxCell>
        <mxCell id="84JKLHhIpNaMjtRcndb6-50" value="Fin" style="ellipse;whiteSpace=wrap;html=1;" vertex="1" parent="1">
          <mxGeometry x="780" y="850" width="120" height="60" as="geometry" />
        </mxCell>
      </root>
    </mxGraphModel>
  </diagram>
</mxfile>
